<?xml version="1.0" encoding="UTF-8"?><svg id="Layer_2" xmlns="http://www.w3.org/2000/svg" viewBox="0 0 838.79 204.48"><defs><style>.cls-1{fill:#fff;}.cls-2{fill:#dffe02;}</style></defs><g id="Layer_1-2"><g><g><path class="cls-2" d="M108.35,49.24l-25.92,25.92V0h36.3V24.2c0,9.4-3.73,18.41-10.38,25.05Z"/><path class="cls-2" d="M41,14.97l17.11,17.11c6.64,6.64,10.38,15.65,10.38,25.05v36.66S15.33,40.64,15.33,40.64L41,14.97Z"/><path class="cls-2" d="M75.17,120.39H0v-36.3H24.2c9.4,0,18.41,3.73,25.05,10.38l25.92,25.92Z"/><path class="cls-2" d="M40.64,187.48l-25.67-25.67,17.11-17.11c6.64-6.64,15.65-10.38,25.05-10.38h36.66s-53.15,53.15-53.15,53.15Z"/><path class="cls-2" d="M119.14,204.48h-36.3v-24.2c0-9.4,3.73-18.41,10.38-25.05l25.92-25.92v75.17Z"/><path class="cls-2" d="M186.24,163.85l-25.67,25.67-17.11-17.11c-6.64-6.64-10.38-15.65-10.38-25.05v-36.66s53.15,53.15,53.15,53.15Z"/><path class="cls-2" d="M201.57,84.1v36.3h-24.2c-9.4,0-18.41-3.73-25.05-10.38l-25.92-25.92h75.17Z"/><path class="cls-2" d="M107.78,70.15l53.15-53.15,25.67,25.67-17.11,17.11c-6.64,6.64-15.65,10.38-25.05,10.38h-36.66Z"/></g><path class="cls-1" d="M686.74,89v-5.31h44.43v-15.11c-3.31-1.15-7.51-2.01-12.76-2.01-15.93,0-22.62,7.87-22.62,7.87v-7.87h-18.6v107.95h17.11V96.56c0-4.18-3.39-7.57-7.57-7.57h0Z"/><path class="cls-1" d="M789.19,66.74c-33.26-2.62-60.8,24.92-58.18,58.18,2.06,26.16,23.26,47.36,49.42,49.42,33.26,2.62,60.81-24.92,58.18-58.18-2.06-26.16-23.26-47.36-49.42-49.42Zm-.62,90.48c-23.31,2.31-42.74-17.12-40.44-40.44,1.71-17.25,15.66-31.21,32.91-32.91,23.31-2.31,42.75,17.12,40.44,40.44-1.71,17.25-15.66,31.21-32.91,32.91Z"/><path class="cls-1" d="M642.65,129.1c-3.9,16.37-18.68,28.52-36.29,28.3-19.18-.24-35.29-15.63-36.34-34.79-1.16-21.3,15.76-38.93,36.81-38.93,17.41,0,31.96,12.08,35.82,28.31h17.47c-4.27-26.8-28.26-47.02-56.62-45.32-26.91,1.62-48.82,23.44-50.53,50.34-2,31.41,22.88,57.51,53.86,57.51,26.9,0,49.19-19.68,53.29-45.42h-17.47Z"/><path class="cls-1" d="M518.12,66.57v14.57c-10.24-9.58-24.2-15.23-39.48-14.5-27.21,1.29-49.56,23.27-51.25,50.46-1.95,31.37,22.91,57.43,53.87,57.43,8.94,0,17.37-2.18,24.79-6.04,4.14-2.15,6.76-6.41,6.76-11.08h0s5.31,0,5.31,0v2.55h0v14.57h17.11V66.57h-17.11Zm0,53.98c0,21.02-17.59,37.92-38.85,36.81-18.61-.98-33.85-16.22-34.82-34.83-1.11-21.26,15.79-38.85,36.81-38.85s36.86,16.5,36.86,36.86h0Z"/><path class="cls-1" d="M336.18,138.38l-35.06-87.64v123.78h-17.17V29.96h27.11l36.86,93.42,36.68-93.42h25.84V174.52h-17.17V50.92l-35.06,87.46h-22.05Z"/></g></g></svg>