<?xml version="1.0" encoding="UTF-8"?>
<svg enable-background="new 0 0 1224 792" version="1.1" viewBox="0 0 1224 792" xml:space="preserve" xmlns="http://www.w3.org/2000/svg">
<g fill="#939598">
	<path d="m696.8 536.3c-0.15 0-0.3-0.15-0.3-0.3v-21.71c0-0.15 0.15-0.3 0.3-0.3h9.04c5.13 0 8.92 2.97 8.92 7.92s-3.83 7.88-8.92 7.88h-7.25v6.21c0 0.15-0.15 0.3-0.3 0.3h-1.49zm1.78-20.44v12.08h7.21c4.02 0 6.88-2.27 6.88-6.02 0-3.79-2.82-6.06-6.88-6.06h-7.21z"/>
	<path d="m750.76 536.01c0 0.15-0.15 0.3-0.3 0.3h-1.49c-0.15 0-0.3-0.15-0.3-0.3v-9.22h-17.55v9.22c0 0.15-0.15 0.3-0.3 0.3h-1.49c-0.15 0-0.3-0.15-0.3-0.3v-21.71c0-0.15 0.15-0.3 0.3-0.3h1.49c0.15 0 0.3 0.15 0.3 0.3v10.63h17.55v-10.63c0-0.15 0.15-0.3 0.3-0.3h1.49c0.15 0 0.3 0.15 0.3 0.3v21.71z"/>
	<path d="m789.63 525.15c0 7.18-5.35 11.53-11.97 11.53-6.58 0-11.97-4.35-11.97-11.53s5.39-11.52 11.97-11.52c6.61 0 11.97 4.34 11.97 11.52zm-21.86 0c0 5.95 4.46 9.67 9.89 9.67s9.89-3.72 9.89-9.67c0-5.98-4.43-9.67-9.89-9.67-5.43 0-9.89 3.69-9.89 9.67z"/>
	<path d="m801.02 515.86c-0.15 0-0.34-0.19-0.34-0.34v-1.19c0-0.15 0.19-0.34 0.34-0.34h21.04c0.15 0 0.34 0.19 0.34 0.34v1.19c0 0.15-0.19 0.34-0.34 0.34h-9.48v20.15c0 0.15-0.15 0.3-0.3 0.3h-1.49c-0.15 0-0.3-0.15-0.3-0.3v-20.15h-9.47z"/>
	<path d="m857.39 525.15c0 7.18-5.35 11.53-11.97 11.53-6.58 0-11.97-4.35-11.97-11.53s5.39-11.52 11.97-11.52c6.62 0 11.97 4.34 11.97 11.52zm-21.86 0c0 5.95 4.46 9.67 9.89 9.67s9.89-3.72 9.89-9.67c0-5.98-4.43-9.67-9.89-9.67-5.43 0-9.89 3.69-9.89 9.67z"/>
	<path d="m890.25 528.94c0.3 0 0.37 0.07 0.37 0.41 0 3.75 2.86 5.46 7.96 5.46 5.13 0 7.28-2.27 7.28-4.98 0-1.71-1.11-3.46-4.68-3.72l-6.43-0.48c-4.35-0.33-6.21-2.23-6.21-5.2 0-3.27 2.94-6.8 9.22-6.8 6.47 0 9.22 3.01 9.22 6.95 0 0.19-0.07 0.3-0.34 0.3h-1.41c-0.22 0-0.33-0.07-0.33-0.37 0-2.86-2.16-5.02-7.14-5.02-4.43 0-7.14 2.16-7.14 4.95 0 1.75 1.19 3.12 4.31 3.35l6.39 0.48c4.83 0.37 6.62 2.75 6.62 5.58 0 3.01-2.57 6.84-9.37 6.84-6.39 0-10.04-2.79-10.04-7.03v-0.41c0-0.19 0.07-0.3 0.3-0.3h1.42z"/>
	<path d="m925.06 525.71v8.74h15.06c0.15 0 0.34 0.19 0.34 0.34v1.19c0 0.15-0.19 0.34-0.34 0.34h-16.84c-0.15 0-0.3-0.15-0.3-0.3v-21.71c0-0.15 0.15-0.3 0.3-0.3h16.47c0.15 0 0.34 0.19 0.34 0.34v1.19c0 0.15-0.19 0.34-0.34 0.34h-14.68v7.99h13.57c0.15 0 0.33 0.18 0.33 0.33v1.19c0 0.15-0.18 0.33-0.33 0.33h-13.58z"/>
	<path d="m954.93 514.29c0-0.15 0.15-0.3 0.3-0.3h9.48c5.32 0 8.85 2.75 8.85 7.14 0 3.5-2.12 5.91-6.36 6.73v0.07s0.63 0.67 1.37 1.6l4.87 6.17c0.19 0.22 0.22 0.33 0.22 0.41 0 0.11-0.07 0.19-0.22 0.19h-1.82c-0.26 0-0.3-0.04-0.48-0.26l-6.28-7.96h-7.84v7.92c0 0.15-0.15 0.3-0.3 0.3h-1.49c-0.15 0-0.3-0.15-0.3-0.3v-21.71zm2.08 1.57v10.37h7.58c4.43 0 6.88-1.86 6.88-5.09 0-3.35-2.79-5.28-6.84-5.28h-7.62z"/>
	<path d="m993.76 527.79c1 2.01 2.34 5.02 2.34 5.02h0.15s1.34-3.01 2.34-5.02l6.77-13.38c0.19-0.37 0.26-0.41 0.56-0.41h1.52c0.19 0 0.26 0.11 0.26 0.19 0 0.11-0.07 0.26-0.15 0.41l-11 21.71h-0.74l-11-21.71c-0.07-0.15-0.15-0.3-0.15-0.41 0-0.07 0.07-0.19 0.22-0.19h1.56c0.3 0 0.37 0.04 0.56 0.41l6.76 13.38z"/>
	<path d="m1023.3 536.01c0 0.15-0.15 0.3-0.3 0.3h-1.49c-0.15 0-0.3-0.15-0.3-0.3v-21.71c0-0.15 0.15-0.3 0.3-0.3h1.49c0.15 0 0.3 0.15 0.3 0.3v21.71z"/>
	<path d="m1058.5 522.43c-0.22 0-0.34-0.07-0.37-0.37-0.3-3.53-3.31-6.58-8.36-6.58-5.32 0-9.48 3.68-9.48 9.67 0 5.95 4.16 9.67 9.48 9.67 5.46 0 8.07-3.12 8.36-6.17 0.04-0.34 0.11-0.41 0.41-0.41h1.34c0.15 0 0.37 0 0.37 0.22 0 3.46-3.23 8.22-10.48 8.22-6.47 0-11.56-4.43-11.56-11.53s5.09-11.52 11.56-11.52c6.95 0 10.48 4.76 10.48 8.55 0 0.15-0.11 0.26-0.37 0.26h-1.38z"/>
	<path d="m1077.3 525.71v8.74h15.06c0.15 0 0.34 0.19 0.34 0.34v1.19c0 0.15-0.19 0.34-0.34 0.34h-16.84c-0.15 0-0.3-0.15-0.3-0.3v-21.71c0-0.15 0.15-0.3 0.3-0.3h16.47c0.15 0 0.34 0.19 0.34 0.34v1.19c0 0.15-0.19 0.34-0.34 0.34h-14.68v7.99h13.57c0.15 0 0.33 0.18 0.33 0.33v1.19c0 0.15-0.18 0.33-0.33 0.33h-13.58z"/>
</g>
	<path d="m1033.2 336.38c-35.01 0-59.46 23.53-59.46 57.22s24.45 57.22 59.46 57.22 59.46-23.53 59.46-57.22-24.45-57.22-59.46-57.22zm0 106.47c-29.18 0-50.37-20.71-50.37-49.25 0-28.99 20.71-49.24 50.37-49.24s50.37 20.25 50.37 49.24c-0.01 28.54-21.19 49.25-50.37 49.25z" fill="#fff"/>
	<path d="m833.7 407.94l32.39 41.02h11.18l-33.02-41.11v-1.18l0.55-0.11c20.53-3.96 31.39-15.42 31.39-33.14 0-21.37-17.18-35.18-43.78-35.18h-48.44v110.71h9.1v-41.28h40.42l0.21 0.27zm-40.63-8.24v-53.48h38.97c21.62 0 35.05 10.43 35.05 27.21 0 16.7-12.84 26.27-35.24 26.27h-38.78z" fill="#fff"/>
		<path d="m668.3 408.64c-3.4 11.71-10.87 21.08-20.92 27.03-0.2 3.28-0.46 6.56-0.79 9.84 15.69-6.81 27.07-19.8 31.18-36.87h-9.47z" fill="#fff"/>
		<path d="m635.12 337.98c0.99 3.07 1.94 6.15 2.82 9.24 14.84 4.98 26.07 16.18 30.4 31.34h9.44c-5.05-21-21.1-35.87-42.66-40.58z" fill="#fff"/>
	<path d="m411.49 333.47l-60.89 120.26h20.63l12.79-25.22h64.27l12.74 25.23h20.87l-60.9-120.27h-9.51zm28.15 77.52h-46.97l23.56-49.04 23.41 49.04z" fill="#fff"/>
	<polygon points="197.3 408.96 144.37 333.47 130.45 333.47 130.45 453.73 149.1 453.73 149.1 369.74 197.31 439.47 245.51 369.74 245.51 453.73 264.16 453.73 264.16 333.47 250.05 333.47" fill="#fff"/>
	<path d="m620.05 438.08c-26.85 0-45.59-18.29-45.59-44.47 0-24.56 16.5-42.17 40.7-44.26-1.73-5.73-3.63-11.39-5.7-16.97-32.05 4.33-53.65 28.25-53.65 61.22 0 36.5 26.42 62 64.24 62 2.26 0 4.46-0.12 6.64-0.3 0.44-5.87 0.69-11.79 0.77-17.75-2.41 0.34-4.88 0.53-7.41 0.53z" fill="#fff"/>
	<linearGradient id="a" x1="305.67" x2="614.48" y1="439.68" y2="328.39" gradientUnits="userSpaceOnUse">
		<stop stop-color="#fff" stop-opacity="0" offset="0"/>
		<stop stop-color="#fff" stop-opacity=".8892" offset=".8349"/>
		<stop stop-color="#fff" offset=".9389"/>
	</linearGradient>
	<path d="m225.25 213.31c26.72-20.05 57.72-34.46 90.35-42.54 32.7-7.88 67.03-9.14 100.39-3.84 33.39 5.23 65.66 17.48 94.44 35.32 28.77 17.9 53.82 41.7 73.49 69.3 19.53 27.7 33.67 59.23 41.03 92.3 7.29 33.07 8.16 67.57 2.02 100.81-6.06 33.23-18.64 65.2-36.91 93.45-18.44 28.11-42.32 52.58-70.09 71.14 53.68-39.77 90.59-100.41 100.79-165.64 5.08-32.55 4.16-66.03-3.37-98.03-7.37-32.02-21.11-62.52-40.15-89.29-18.94-26.84-43.17-49.9-70.93-67.49-27.7-17.71-58.98-29.69-91.38-35.68-64.92-12-134.37 2.71-189.68 40.19z" fill="url(#a)"/>
</svg>
