<svg xmlns="http://www.w3.org/2000/svg" width="81.574" height="81.573" viewBox="0 0 81.574 81.573">
  <g id="Group_13" data-name="Group 13" transform="translate(228.177 -3598.926)">
    <path id="Path_22" data-name="Path 22" d="M533.609,1.255a39.531,39.531,0,1,0,39.532,39.531A39.576,39.576,0,0,0,533.609,1.255m0,80.318a40.787,40.787,0,0,1-28.841-69.628,40.788,40.788,0,0,1,57.683,57.682,40.521,40.521,0,0,1-28.842,11.946" transform="translate(-721 3598.926)" fill="#CCFF00" fill-rule="evenodd"/>
    <path id="Path_23" data-name="Path 23" d="M537.409,13.3a31.283,31.283,0,1,0,31.283,31.282A31.319,31.319,0,0,0,537.409,13.3m0,63.821a32.538,32.538,0,1,1,32.539-32.539A32.576,32.576,0,0,1,537.409,77.124Z" transform="translate(-724.799 3595.127)" fill="#CCFF00" fill-rule="evenodd"/>
    <path id="Path_24" data-name="Path 24" d="M552.108,20a.628.628,0,0,1-.628-.627v-6.7a.627.627,0,0,1,1.255,0v6.7a.628.628,0,0,1-.628.628Z" transform="translate(-739.498 3595.126)" fill="#CCFF00" fill-rule="evenodd"/>
    <path id="Path_25" data-name="Path 25" d="M570.518,25.352a.627.627,0,0,1-.544-.941l3.352-5.8a.627.627,0,1,1,1.086.628l-3.35,5.8a.63.63,0,0,1-.544.314Z" transform="translate(-745.304 3593.157)" fill="#CCFF00" fill-rule="evenodd"/>
    <path id="Path_26" data-name="Path 26" d="M583.994,39.957a.627.627,0,0,1-.314-1.171l5.8-3.351a.627.627,0,1,1,.628,1.087l-5.8,3.351a.635.635,0,0,1-.314.084Z" transform="translate(-749.554 3587.778)" fill="#CCFF00" fill-rule="evenodd"/>
    <path id="Path_27" data-name="Path 27" d="M595.629,59.912h-6.7a.627.627,0,0,1,0-1.254h6.7a.627.627,0,0,1,0,1.255Z" transform="translate(-751.11 3580.427)" fill="#CCFF00" fill-rule="evenodd"/>
    <path id="Path_28" data-name="Path 28" d="M589.8,81.674a.629.629,0,0,1-.314-.084l-5.8-3.351a.627.627,0,1,1,.627-1.087l5.8,3.351a.628.628,0,0,1-.314,1.171Z" transform="translate(-749.555 3574.622)" fill="#CCFF00" fill-rule="evenodd"/>
    <path id="Path_29" data-name="Path 29" d="M573.869,97.6a.63.63,0,0,1-.544-.314l-3.351-5.8a.628.628,0,0,1,1.088-.627l3.35,5.8a.626.626,0,0,1-.543.941Z" transform="translate(-745.304 3570.371)" fill="#CCFF00" fill-rule="evenodd"/>
    <path id="Path_30" data-name="Path 30" d="M552.108,103.436a.628.628,0,0,1-.628-.628v-6.7a.627.627,0,0,1,1.255,0v6.7a.628.628,0,0,1-.628.628Z" transform="translate(-739.498 3568.816)" fill="#CCFF00" fill-rule="evenodd"/>
    <path id="Path_31" data-name="Path 31" d="M528.8,97.6a.627.627,0,0,1-.542-.941l3.352-5.8a.627.627,0,1,1,1.086.628l-3.351,5.8a.625.625,0,0,1-.544.314Z" transform="translate(-732.149 3570.371)" fill="#CCFF00" fill-rule="evenodd"/>
    <path id="Path_32" data-name="Path 32" d="M511.744,81.673a.627.627,0,0,1-.314-1.171l5.8-3.351a.628.628,0,0,1,.627,1.087l-5.8,3.351a.642.642,0,0,1-.314.084Z" transform="translate(-726.769 3574.622)" fill="#CCFF00" fill-rule="evenodd"/>
    <path id="Path_33" data-name="Path 33" d="M512.2,59.912h-6.7a.627.627,0,1,1,0-1.254h6.7a.627.627,0,0,1,0,1.255Z" transform="translate(-724.799 3580.427)" fill="#CCFF00" fill-rule="evenodd"/>
    <path id="Path_34" data-name="Path 34" d="M517.547,39.957a.622.622,0,0,1-.312-.084l-5.8-3.351a.627.627,0,1,1,.627-1.087l5.8,3.351a.628.628,0,0,1-.315,1.171Z" transform="translate(-726.769 3587.778)" fill="#CCFF00" fill-rule="evenodd"/>
    <path id="Path_35" data-name="Path 35" d="M532.156,25.352a.629.629,0,0,1-.544-.314l-3.351-5.8a.627.627,0,0,1,1.086-.628l3.351,5.8a.626.626,0,0,1-.542.941Z" transform="translate(-732.149 3593.157)" fill="#CCFF00" fill-rule="evenodd"/>
    <path id="Path_36" data-name="Path 36" d="M550.525,54.892a2.809,2.809,0,1,0,2.81,2.809,2.813,2.813,0,0,0-2.81-2.809m0,6.874a4.064,4.064,0,1,1,4.066-4.065,4.069,4.069,0,0,1-4.066,4.065Z" transform="translate(-737.915 3582.011)" fill="#CCFF00" fill-rule="evenodd"/>
    <path id="Path_37" data-name="Path 37" d="M552.233,48.742a.628.628,0,0,1-.628-.627V34.764a.627.627,0,0,1,1.254,0V48.115a.627.627,0,0,1-.628.627Z" transform="translate(-739.538 3588.16)" fill="#CCFF00" fill-rule="evenodd"/>
    <path id="Path_38" data-name="Path 38" d="M538.233,77.545a.639.639,0,0,1-.314-.084.629.629,0,0,1-.229-.857L545.4,63.255a.627.627,0,1,1,1.087.628l-7.706,13.348a.627.627,0,0,1-.544.314Z" transform="translate(-735.123 3579.076)" fill="#CCFF00" fill-rule="evenodd"/>
    <path id="Path_39" data-name="Path 39" d="M564.175,11.209a.6.6,0,0,1-.162-.021.628.628,0,0,1-.445-.768L565.7,2.45a.628.628,0,0,1,1.212.325l-2.135,7.97a.627.627,0,0,1-.607.466Z" transform="translate(-743.304 3598.3)" fill="#CCFF00" fill-rule="evenodd"/>
    <path id="Path_40" data-name="Path 40" d="M585.066,24.267a.621.621,0,0,1-.443-.183.628.628,0,0,1,0-.888l5.832-5.833a.628.628,0,0,1,.888.889l-5.831,5.832a.625.625,0,0,1-.445.183Z" transform="translate(-749.893 3593.508)" fill="#CCFF00" fill-rule="evenodd"/>
    <path id="Path_41" data-name="Path 41" d="M597.141,46.86a.628.628,0,0,1-.162-1.234l7.969-2.136a.628.628,0,1,1,.325,1.212L597.3,46.838A.611.611,0,0,1,597.141,46.86Z" transform="translate(-753.7 3585.218)" fill="#CCFF00" fill-rule="evenodd"/>
    <path id="Path_42" data-name="Path 42" d="M605.11,74.114a.623.623,0,0,1-.162-.021l-7.971-2.135a.627.627,0,0,1,.325-1.212l7.969,2.135a.627.627,0,0,1-.162,1.234Z" transform="translate(-753.7 3576.622)" fill="#CCFF00" fill-rule="evenodd"/>
    <path id="Path_43" data-name="Path 43" d="M590.9,98.7a.633.633,0,0,1-.445-.183l-5.832-5.833a.628.628,0,0,1,.888-.887l5.832,5.832a.628.628,0,0,1,0,.888A.62.62,0,0,1,590.9,98.7Z" transform="translate(-749.892 3570.034)" fill="#CCFF00" fill-rule="evenodd"/>
    <path id="Path_44" data-name="Path 44" d="M566.31,112.914a.628.628,0,0,1-.607-.465l-2.135-7.97a.627.627,0,0,1,1.212-.325l2.136,7.97a.628.628,0,0,1-.445.769.62.62,0,0,1-.162.021Z" transform="translate(-743.304 3566.226)" fill="#CCFF00" fill-rule="evenodd"/>
    <path id="Path_45" data-name="Path 45" d="M536.924,112.914a.617.617,0,0,1-.164-.021.626.626,0,0,1-.443-.768l2.136-7.97a.627.627,0,1,1,1.21.325l-2.133,7.97a.63.63,0,0,1-.607.466Z" transform="translate(-734.71 3566.226)" fill="#CCFF00" fill-rule="evenodd"/>
    <path id="Path_46" data-name="Path 46" d="M510.633,98.7a.627.627,0,0,1-.445-1.071l5.834-5.832a.627.627,0,0,1,.887.887l-5.833,5.832A.625.625,0,0,1,510.633,98.7Z" transform="translate(-726.418 3570.034)" fill="#CCFF00" fill-rule="evenodd"/>
    <path id="Path_47" data-name="Path 47" d="M495.436,74.114a.628.628,0,0,1-.162-1.234l7.971-2.135a.627.627,0,1,1,.322,1.212L495.6,74.092A.61.61,0,0,1,495.436,74.114Z" transform="translate(-721.626 3576.623)" fill="#CCFF00" fill-rule="evenodd"/>
    <path id="Path_48" data-name="Path 48" d="M503.407,46.86a.62.62,0,0,1-.162-.021L495.275,44.7a.628.628,0,0,1,.325-1.212l7.969,2.135a.627.627,0,0,1-.162,1.234Z" transform="translate(-721.626 3585.218)" fill="#CCFF00" fill-rule="evenodd"/>
    <path id="Path_49" data-name="Path 49" d="M516.463,24.268a.622.622,0,0,1-.443-.183l-5.833-5.832a.627.627,0,1,1,.887-.887l5.834,5.832a.627.627,0,0,1-.444,1.071Z" transform="translate(-726.418 3593.508)" fill="#CCFF00" fill-rule="evenodd"/>
    <path id="Path_50" data-name="Path 50" d="M539.058,11.209a.628.628,0,0,1-.605-.465l-2.135-7.97a.628.628,0,1,1,1.212-.325l2.134,7.97a.627.627,0,0,1-.606.789Z" transform="translate(-734.71 3598.3)" fill="#CCFF00" fill-rule="evenodd"/>
  </g>
</svg>
