<svg xmlns="http://www.w3.org/2000/svg" width="112.392" height="59.904" viewBox="0 0 112.392 59.904">
  <g id="Group_14" data-name="Group 14" transform="translate(721.001 -3604.677)">
    <path id="Path_54" data-name="Path 54" d="M2.36,16.177H5.2V13.31a2.4,2.4,0,0,1,2.36-2.36H10.4V8.112a2.4,2.4,0,0,1,2.361-2.361H110.03a2.361,2.361,0,0,1,1.658.7,2.247,2.247,0,0,1,.7,1.658V52.87a2.263,2.263,0,0,1-.7,1.685,2.333,2.333,0,0,1-1.658.675h-2.838V58.1a2.4,2.4,0,0,1-2.361,2.361h-2.838v2.838a2.4,2.4,0,0,1-2.36,2.36H2.36a2.365,2.365,0,0,1-1.658-.7A2.247,2.247,0,0,1,0,63.295V18.537a2.265,2.265,0,0,1,.7-1.686A2.338,2.338,0,0,1,2.36,16.177ZM51.054,40.734a.684.684,0,0,1-.225-.029,6.56,6.56,0,0,1-2.7-1.068,2.935,2.935,0,0,1-1.152-2.951,3.286,3.286,0,0,1,1.348-2.248,4.043,4.043,0,0,1,2.107-.871v-.927a.717.717,0,0,1,1.433,0v.984a4.742,4.742,0,0,1,2.163,1.068,3.959,3.959,0,0,1,1.321,2.922,4.548,4.548,0,0,1-.028.618c-.056.2-.084.393-.168.618a.7.7,0,0,1-.9.421.682.682,0,0,1-.45-.9c.029-.113.056-.253.084-.365a1.847,1.847,0,0,0,.028-.393,2.393,2.393,0,0,0-.842-1.827A3.174,3.174,0,0,0,51.109,35v-.028h-.2a2.806,2.806,0,0,0-1.714.59,2.054,2.054,0,0,0-.787,1.292,1.562,1.562,0,0,0,.59,1.63,5.855,5.855,0,0,0,2.079.815.59.59,0,0,1,.225,0,7.731,7.731,0,0,1,2.782,1.068,2.946,2.946,0,0,1,1.237,2.978,3.409,3.409,0,0,1-1.349,2.248,4.24,4.24,0,0,1-2.107.843v.927a.716.716,0,1,1-1.432,0v-.984a4.491,4.491,0,0,1-2.164-1.068,3.927,3.927,0,0,1-1.349-2.894,5.1,5.1,0,0,1,.056-.646,4.54,4.54,0,0,1,.168-.59.71.71,0,0,1,.927-.45.718.718,0,0,1,.422.927c-.029.113-.056.224-.084.365a1.723,1.723,0,0,0-.028.393,2.542,2.542,0,0,0,.842,1.827,3.349,3.349,0,0,0,1.967.787h.2a2.806,2.806,0,0,0,1.714-.59,1.994,1.994,0,0,0,.787-1.264,1.584,1.584,0,0,0-.646-1.658,6.131,6.131,0,0,0-2.191-.787ZM12.279,64.2A11.607,11.607,0,0,0,8.908,56.75a11.481,11.481,0,0,0-7.474-3.372V63.3a.913.913,0,0,0,.281.646.888.888,0,0,0,.645.253h9.919ZM9.92,55.71A13.042,13.042,0,0,1,13.713,64.2H88.285a12.909,12.909,0,0,1,12.251-12.25V29.888a13.178,13.178,0,0,1-8.486-3.793,12.89,12.89,0,0,1-3.765-8.486H13.713a12.909,12.909,0,0,1-3.793,8.486,13.056,13.056,0,0,1-8.485,3.793V51.945A12.892,12.892,0,0,1,9.919,55.71Zm90.614-2.332A11.6,11.6,0,0,0,89.716,64.2h9.919a.865.865,0,0,0,.9-.9V53.379ZM89.716,17.611a11.35,11.35,0,0,0,3.372,7.445,11.471,11.471,0,0,0,7.445,3.372V18.538a.887.887,0,0,0-.253-.646.912.912,0,0,0-.646-.282ZM1.435,28.429a11.485,11.485,0,0,0,7.474-3.372,11.489,11.489,0,0,0,3.372-7.445H2.363a.914.914,0,0,0-.646.281.915.915,0,0,0-.282.646v9.891Zm60.886,5H72.577a2.336,2.336,0,0,1,1.658.674,2.48,2.48,0,0,1,.7,1.686v8.064a2.4,2.4,0,0,1-2.36,2.361H62.321a12.163,12.163,0,0,1-2.135,2.81,13.057,13.057,0,0,1-18.4,0,14,14,0,0,1-2.136-2.81H29.419a2.4,2.4,0,0,1-2.361-2.361V35.791a2.481,2.481,0,0,1,.7-1.686,2.337,2.337,0,0,1,1.658-.674H39.647a13.216,13.216,0,0,1,2.136-2.81,12.99,12.99,0,0,1,18.4,0,11.57,11.57,0,0,1,2.135,2.81m.7,11.323h9.553A.83.83,0,0,0,73.2,44.5a.914.914,0,0,0,.281-.646V35.791a.914.914,0,0,0-.281-.646.851.851,0,0,0-.618-.281H63.024a12.912,12.912,0,0,1,0,9.89ZM38.945,34.863H29.419a.912.912,0,0,0-.646.282.89.89,0,0,0-.253.646v8.064a.865.865,0,0,0,.9.9h9.526a13.272,13.272,0,0,1,0-9.89Zm20.23-3.231a11.577,11.577,0,0,0-19.753,8.177,11.577,11.577,0,0,0,23.153,0,11.657,11.657,0,0,0-3.4-8.177M11.858,10.952h92.975a2.4,2.4,0,0,1,2.361,2.36V53.8h2.838a.963.963,0,0,0,.927-.927V8.116a.915.915,0,0,0-.281-.646.89.89,0,0,0-.646-.253H12.759a.864.864,0,0,0-.9.9v2.838Zm-5.2,5.226H99.635a2.338,2.338,0,0,1,1.658.674,2.377,2.377,0,0,1,.7,1.686V59h2.838a.916.916,0,0,0,.646-.282.826.826,0,0,0,.253-.618V13.311a.828.828,0,0,0-.253-.618.913.913,0,0,0-.646-.282H7.561a.912.912,0,0,0-.646.282.826.826,0,0,0-.253.618v2.867Z" transform="translate(-721 3598.926)" fill="#ea5f18"/>
  </g>
</svg>
