<?xml version="1.0" encoding="utf-8"?>
<!-- Generator: Adobe Illustrator 26.0.3, SVG Export Plug-In . SVG Version: 6.00 Build 0)  -->
<svg version="1.1" id="Layer_1" xmlns="http://www.w3.org/2000/svg" xmlns:xlink="http://www.w3.org/1999/xlink" x="0px" y="0px"
	 viewBox="0 0 1224 792" enable-background="new 0 0 1224 792" xml:space="preserve">
<g>
	<path fill="#939598" d="M696.8,536.3c-0.15,0-0.3-0.15-0.3-0.3v-21.71c0-0.15,0.15-0.3,0.3-0.3h9.04c5.13,0,8.92,2.97,8.92,7.92
		c0,4.95-3.83,7.88-8.92,7.88h-7.25v6.21c0,0.15-0.15,0.3-0.3,0.3H696.8z M698.58,515.86v12.08h7.21c4.02,0,6.88-2.27,6.88-6.02
		c0-3.79-2.82-6.06-6.88-6.06H698.58z"/>
	<path fill="#939598" d="M750.76,536.01c0,0.15-0.15,0.3-0.3,0.3h-1.49c-0.15,0-0.3-0.15-0.3-0.3v-9.22h-17.55v9.22
		c0,0.15-0.15,0.3-0.3,0.3h-1.49c-0.15,0-0.3-0.15-0.3-0.3v-21.71c0-0.15,0.15-0.3,0.3-0.3h1.49c0.15,0,0.3,0.15,0.3,0.3v10.63
		h17.55v-10.63c0-0.15,0.15-0.3,0.3-0.3h1.49c0.15,0,0.3,0.15,0.3,0.3V536.01z"/>
	<path fill="#939598" d="M789.63,525.15c0,7.18-5.35,11.53-11.97,11.53c-6.58,0-11.97-4.35-11.97-11.53
		c0-7.18,5.39-11.52,11.97-11.52C784.27,513.63,789.63,517.97,789.63,525.15z M767.77,525.15c0,5.95,4.46,9.67,9.89,9.67
		c5.43,0,9.89-3.72,9.89-9.67c0-5.98-4.43-9.67-9.89-9.67C772.23,515.48,767.77,519.17,767.77,525.15z"/>
	<path fill="#939598" d="M801.02,515.86c-0.15,0-0.34-0.19-0.34-0.34v-1.19c0-0.15,0.19-0.34,0.34-0.34h21.04
		c0.15,0,0.34,0.19,0.34,0.34v1.19c0,0.15-0.19,0.34-0.34,0.34h-9.48v20.15c0,0.15-0.15,0.3-0.3,0.3h-1.49c-0.15,0-0.3-0.15-0.3-0.3
		v-20.15H801.02z"/>
	<path fill="#939598" d="M857.39,525.15c0,7.18-5.35,11.53-11.97,11.53c-6.58,0-11.97-4.35-11.97-11.53
		c0-7.18,5.39-11.52,11.97-11.52C852.04,513.63,857.39,517.97,857.39,525.15z M835.53,525.15c0,5.95,4.46,9.67,9.89,9.67
		s9.89-3.72,9.89-9.67c0-5.98-4.43-9.67-9.89-9.67C839.99,515.48,835.53,519.17,835.53,525.15z"/>
	<path fill="#939598" d="M890.25,528.94c0.3,0,0.37,0.07,0.37,0.41c0,3.75,2.86,5.46,7.96,5.46c5.13,0,7.28-2.27,7.28-4.98
		c0-1.71-1.11-3.46-4.68-3.72l-6.43-0.48c-4.35-0.33-6.21-2.23-6.21-5.2c0-3.27,2.94-6.8,9.22-6.8c6.47,0,9.22,3.01,9.22,6.95
		c0,0.19-0.07,0.3-0.34,0.3h-1.41c-0.22,0-0.33-0.07-0.33-0.37c0-2.86-2.16-5.02-7.14-5.02c-4.43,0-7.14,2.16-7.14,4.95
		c0,1.75,1.19,3.12,4.31,3.35l6.39,0.48c4.83,0.37,6.62,2.75,6.62,5.58c0,3.01-2.57,6.84-9.37,6.84c-6.39,0-10.04-2.79-10.04-7.03
		v-0.41c0-0.19,0.07-0.3,0.3-0.3H890.25z"/>
	<path fill="#939598" d="M925.06,525.71v8.74h15.06c0.15,0,0.34,0.19,0.34,0.34v1.19c0,0.15-0.19,0.34-0.34,0.34h-16.84
		c-0.15,0-0.3-0.15-0.3-0.3v-21.71c0-0.15,0.15-0.3,0.3-0.3h16.47c0.15,0,0.34,0.19,0.34,0.34v1.19c0,0.15-0.19,0.34-0.34,0.34
		h-14.68v7.99h13.57c0.15,0,0.33,0.18,0.33,0.33v1.19c0,0.15-0.18,0.33-0.33,0.33H925.06z"/>
	<path fill="#939598" d="M954.93,514.29c0-0.15,0.15-0.3,0.3-0.3h9.48c5.32,0,8.85,2.75,8.85,7.14c0,3.5-2.12,5.91-6.36,6.73v0.07
		c0,0,0.63,0.67,1.37,1.6l4.87,6.17c0.19,0.22,0.22,0.33,0.22,0.41c0,0.11-0.07,0.19-0.22,0.19h-1.82c-0.26,0-0.3-0.04-0.48-0.26
		l-6.28-7.96h-7.84v7.92c0,0.15-0.15,0.3-0.3,0.3h-1.49c-0.15,0-0.3-0.15-0.3-0.3V514.29z M957.01,515.86v10.37h7.58
		c4.43,0,6.88-1.86,6.88-5.09c0-3.35-2.79-5.28-6.84-5.28H957.01z"/>
	<path fill="#939598" d="M993.76,527.79c1,2.01,2.34,5.02,2.34,5.02h0.15c0,0,1.34-3.01,2.34-5.02l6.77-13.38
		c0.19-0.37,0.26-0.41,0.56-0.41h1.52c0.19,0,0.26,0.11,0.26,0.19c0,0.11-0.07,0.26-0.15,0.41l-11,21.71h-0.74l-11-21.71
		c-0.07-0.15-0.15-0.3-0.15-0.41c0-0.07,0.07-0.19,0.22-0.19h1.56c0.3,0,0.37,0.04,0.56,0.41L993.76,527.79z"/>
	<path fill="#939598" d="M1023.33,536.01c0,0.15-0.15,0.3-0.3,0.3h-1.49c-0.15,0-0.3-0.15-0.3-0.3v-21.71c0-0.15,0.15-0.3,0.3-0.3
		h1.49c0.15,0,0.3,0.15,0.3,0.3V536.01z"/>
	<path fill="#939598" d="M1058.54,522.43c-0.22,0-0.34-0.07-0.37-0.37c-0.3-3.53-3.31-6.58-8.36-6.58c-5.32,0-9.48,3.68-9.48,9.67
		c0,5.95,4.16,9.67,9.48,9.67c5.46,0,8.07-3.12,8.36-6.17c0.04-0.34,0.11-0.41,0.41-0.41h1.34c0.15,0,0.37,0,0.37,0.22
		c0,3.46-3.23,8.22-10.48,8.22c-6.47,0-11.56-4.43-11.56-11.53c0-7.1,5.09-11.52,11.56-11.52c6.95,0,10.48,4.76,10.48,8.55
		c0,0.15-0.11,0.26-0.37,0.26H1058.54z"/>
	<path fill="#939598" d="M1077.3,525.71v8.74h15.06c0.15,0,0.34,0.19,0.34,0.34v1.19c0,0.15-0.19,0.34-0.34,0.34h-16.84
		c-0.15,0-0.3-0.15-0.3-0.3v-21.71c0-0.15,0.15-0.3,0.3-0.3h16.47c0.15,0,0.34,0.19,0.34,0.34v1.19c0,0.15-0.19,0.34-0.34,0.34
		h-14.68v7.99h13.57c0.15,0,0.33,0.18,0.33,0.33v1.19c0,0.15-0.18,0.33-0.33,0.33H1077.3z"/>
</g>
<g>
	<path fill="#FFFFFF" d="M1033.23,336.38c-35.01,0-59.46,23.53-59.46,57.22c0,33.69,24.45,57.22,59.46,57.22
		c35.01,0,59.46-23.53,59.46-57.22C1092.69,359.91,1068.24,336.38,1033.23,336.38z M1033.23,442.85
		c-29.18,0-50.37-20.71-50.37-49.25c0-28.99,20.71-49.24,50.37-49.24c29.66,0,50.37,20.25,50.37,49.24
		C1083.59,422.14,1062.41,442.85,1033.23,442.85z"/>
	<path fill="#FFFFFF" d="M833.7,407.94l32.39,41.02h11.18l-33.02-41.11v-1.18l0.55-0.11c20.53-3.96,31.39-15.42,31.39-33.14
		c0-21.37-17.18-35.18-43.78-35.18h-48.44v110.71h9.1v-41.28h40.42L833.7,407.94z M793.07,399.7v-53.48h38.97
		c21.62,0,35.05,10.43,35.05,27.21c0,16.7-12.84,26.27-35.24,26.27H793.07z"/>
	<g>
		<path fill="#FFFFFF" d="M668.3,408.64c-3.4,11.71-10.87,21.08-20.92,27.03c-0.2,3.28-0.46,6.56-0.79,9.84
			c15.69-6.81,27.07-19.8,31.18-36.87H668.3z"/>
	</g>
	<g>
		<path fill="#FFFFFF" d="M635.12,337.98c0.99,3.07,1.94,6.15,2.82,9.24c14.84,4.98,26.07,16.18,30.4,31.34h9.44
			C672.73,357.56,656.68,342.69,635.12,337.98z"/>
	</g>
	<path fill="#FFFFFF" d="M411.49,333.47L350.6,453.73h20.63l12.79-25.22h64.27l12.74,25.23h20.87L421,333.47H411.49z M439.64,410.99
		h-46.97l23.56-49.04L439.64,410.99z"/>
	<polygon fill="#FFFFFF" points="197.3,408.96 144.37,333.47 130.45,333.47 130.45,453.73 149.1,453.73 149.1,369.74 197.31,439.47 
		245.51,369.74 245.51,453.73 264.16,453.73 264.16,333.47 250.05,333.47 	"/>
	<path fill="#FFFFFF" d="M620.05,438.08c-26.85,0-45.59-18.29-45.59-44.47c0-24.56,16.5-42.17,40.7-44.26
		c-1.73-5.73-3.63-11.39-5.7-16.97c-32.05,4.33-53.65,28.25-53.65,61.22c0,36.5,26.42,62,64.24,62c2.26,0,4.46-0.12,6.64-0.3
		c0.44-5.87,0.69-11.79,0.77-17.75C625.05,437.89,622.58,438.08,620.05,438.08z"/>
	<linearGradient id="SVGID_1_" gradientUnits="userSpaceOnUse" x1="305.668" y1="439.6813" x2="614.4831" y2="328.3866">
		<stop  offset="0" style="stop-color:#FFFFFF;stop-opacity:0"/>
		<stop  offset="0.8349" style="stop-color:#FFFFFF;stop-opacity:0.8892"/>
		<stop  offset="0.9389" style="stop-color:#FFFFFF"/>
	</linearGradient>
	<path fill="url(#SVGID_1_)" d="M225.25,213.31c26.72-20.05,57.72-34.46,90.35-42.54c32.7-7.88,67.03-9.14,100.39-3.84
		c33.39,5.23,65.66,17.48,94.44,35.32c28.77,17.9,53.82,41.7,73.49,69.3c19.53,27.7,33.67,59.23,41.03,92.3
		c7.29,33.07,8.16,67.57,2.02,100.81c-6.06,33.23-18.64,65.2-36.91,93.45c-18.44,28.11-42.32,52.58-70.09,71.14
		c53.68-39.77,90.59-100.41,100.79-165.64c5.08-32.55,4.16-66.03-3.37-98.03c-7.37-32.02-21.11-62.52-40.15-89.29
		c-18.94-26.84-43.17-49.9-70.93-67.49c-27.7-17.71-58.98-29.69-91.38-35.68C350.01,161.12,280.56,175.83,225.25,213.31z"/>
</g>
</svg>
