<?xml version="1.0" encoding="utf-8"?>
<!-- Generator: Adobe Illustrator 28.1.0, SVG Export Plug-In . SVG Version: 6.00 Build 0)  -->
<svg version="1.1" id="Layer_1" xmlns="http://www.w3.org/2000/svg" xmlns:xlink="http://www.w3.org/1999/xlink" x="0px" y="0px"
	 viewBox="0 0 1080 1080" style="enable-background:new 0 0 1080 1080;" xml:space="preserve">
<style type="text/css">
	.st0{fill:#FFFFFF;}
</style>
<g>
	<path class="st0" d="M573.33,308.91L460.19,422.05V93.96h158.43v105.61C618.62,240.58,602.33,279.91,573.33,308.91z"/>
	<path class="st0" d="M279.37,159.31l74.68,74.68c29,29,45.29,68.33,45.29,109.34v160L167.35,271.34L279.37,159.31z"/>
	<path class="st0" d="M428.51,619.43H100.42V461h105.61c41.01,0,80.34,16.29,109.34,45.29L428.51,619.43z"/>
	<path class="st0" d="M277.8,912.28L165.77,800.25l74.68-74.68c29-29,68.33-45.29,109.34-45.29h160L277.8,912.28z"/>
	<path class="st0" d="M620.47,986.5H462.04V880.89c0-41.01,16.29-80.34,45.29-109.34l113.14-113.14V986.5z"/>
	<path class="st0" d="M913.32,809.12L801.3,921.15l-74.68-74.68c-29-29-45.29-68.33-45.29-109.34v-160L913.32,809.12z"/>
	<path class="st0" d="M980.24,461.03v158.43H874.63c-41.01,0-80.34-16.29-109.34-45.29L652.16,461.03H980.24z"/>
	<path class="st0" d="M570.88,400.17l231.99-231.99l112.03,112.02l-74.68,74.68c-29,29-68.33,45.29-109.34,45.29H570.88z"/>
</g>
</svg>
